<?xml version="1.0" standalone="no"?>
<!DOCTYPE svg PUBLIC "-//W3C//DTD SVG 20010904//EN"
 "http://www.w3.org/TR/2001/REC-SVG-20010904/DTD/svg10.dtd">
<svg version="1.0" xmlns="http://www.w3.org/2000/svg"
 width="512.000000pt" height="512.000000pt" viewBox="0 0 512.000000 512.000000"
 preserveAspectRatio="xMidYMid meet">
<metadata>
Created by potrace 1.16, written by Peter Selinger 2001-2019
</metadata>
<g transform="translate(0.000000,512.000000) scale(0.100000,-0.100000)"
fill="#000000" stroke="none">
<path d="M507 4612 c-279 -279 -507 -512 -507 -517 0 -5 343 -353 762 -772
l763 -763 -763 -763 c-419 -419 -762 -767 -762 -772 0 -13 1012 -1025 1025
-1025 5 0 353 343 772 762 l763 763 763 -763 c419 -419 767 -762 772 -762 13
0 1025 1012 1025 1025 0 5 -343 353 -762 772 l-763 763 763 763 c419 419 762
767 762 772 0 13 -1012 1025 -1025 1025 -5 0 -353 -343 -772 -762 l-763 -763
-763 763 c-419 419 -767 762 -772 762 -6 0 -238 -228 -518 -508z"/>
</g>
</svg>
